<svg width="238" height="55" viewBox="0 0 238 55" fill="none" xmlns="http://www.w3.org/2000/svg">
<path d="M210.379 26.7444H1.32595C1.32738 27.8726 1.36516 29.01 1.44019 30.1938H209.725C209.973 29.1345 210.187 27.991 210.379 26.7444Z" fill="#4A1E01"/>
<path d="M206.311 37.9065H3.29607C6.94742 39.0315 10.0242 39.9053 13.0325 40.6503H203.775C204.754 39.7549 205.591 38.8544 206.311 37.9065Z" fill="#4A1E01"/>
<path d="M1.72181 33.4189C1.86291 34.716 2.0423 36.0925 2.26086 37.5856C2.61118 37.6948 2.95611 37.8018 3.29607 37.9065H206.311C207.343 36.549 208.135 35.0944 208.765 33.4189H1.72181Z" fill="#4A1E01"/>
<path d="M209.725 30.1938H1.44019C1.50558 31.2254 1.59926 32.2923 1.72181 33.4189H208.765C209.137 32.4294 209.452 31.3629 209.725 30.1938Z" fill="#4A1E01"/>
<path d="M32.724 44.0409L32.7456 44.0431C38.5945 44.6369 43.9753 45.1832 49.1929 45.6769H190.02C193.083 45.1175 196.334 44.4527 199.963 43.6632C201.432 42.6271 202.69 41.6419 203.775 40.6503H13.0325C17.5361 41.7655 21.8864 42.592 27.7815 43.5398C29.4622 43.7097 31.1015 43.8761 32.7055 44.039C32.7116 44.0396 32.7178 44.0402 32.724 44.0409Z" fill="#4A1E01"/>
<path d="M160.083 48.4502L160.854 48.4266C172.631 48.152 180.393 47.4352 190.02 45.6769H49.1929C63.3299 47.0144 76.2683 47.9653 94.069 48.4266C119.982 49.6766 134.54 49.2314 160.083 48.4502Z" fill="#4A1E01"/>
<path d="M210.379 26.7444C210.387 26.69 210.395 26.6353 210.404 26.5804C210.124 25.3355 209.829 24.1943 209.502 23.1308H1.44374C1.36405 24.3547 1.32443 25.5444 1.32595 26.7444H210.379Z" fill="#4A1E01"/>
<path d="M1.44374 23.1308H209.502C209.158 22.015 208.779 20.9848 208.345 20.0099H1.72181C1.6023 21.0901 1.50941 22.1221 1.44374 23.1308Z" fill="#4A1E01"/>
<path d="M1.72181 20.0099H208.345C207.776 18.733 207.113 17.551 206.311 16.3962H2.1888C2.00392 17.6743 1.84802 18.869 1.72181 20.0099Z" fill="#4A1E01"/>
<path d="M2.26086 15.9038C2.23637 16.0693 2.21235 16.2335 2.1888 16.3962H206.311C205.344 15.004 204.177 13.6514 202.731 12.2195H13.0325C9.72008 13.1984 6.35123 14.3557 2.26086 15.9038Z" fill="#4A1E01"/>
<path d="M27.7815 8.70678C21.8761 9.90095 17.5057 10.8975 13.0325 12.2195H202.731C201.904 11.4003 200.986 10.5553 199.963 9.66206C196.333 9.05807 193.086 8.53325 190.02 8.07782H34.9674C32.6498 8.27698 30.2611 8.48621 27.7815 8.70678Z" fill="#4A1E01"/>
<path d="M160.854 5.55565C135.064 3.69195 120.425 3.47142 94.069 4.24159C70.6593 5.32538 55.6408 6.30126 34.9674 8.07782H190.02C180.552 6.67136 172.811 5.92665 160.854 5.55565Z" fill="#4A1E01"/>
<path fill-rule="evenodd" clip-rule="evenodd" d="M2.26086 48.2624C-0.43037 31.5616 -0.410181 22.2731 2.26086 5.88416C9.69757 6.04177 14.1524 6.24866 18.8327 8.33922C19.4882 8.63203 20.1482 8.9618 20.8214 9.33355C23.2254 9.11473 25.5405 8.90612 27.7815 8.70678C21.8761 9.90095 17.5057 10.8975 13.0325 12.2195C9.72008 13.1984 6.35123 14.3557 2.26086 15.9038C2.23637 16.0693 2.21235 16.2335 2.1888 16.3962C2.00392 17.6743 1.84802 18.869 1.72181 20.0099C1.6023 21.0901 1.50941 22.1221 1.44374 23.1308C1.36405 24.3547 1.32443 25.5444 1.32595 26.7444C1.32738 27.8726 1.36516 29.01 1.44019 30.1938C1.50558 31.2254 1.59926 32.2923 1.72181 33.4189C1.86291 34.716 2.0423 36.0925 2.26086 37.5856C2.61118 37.6948 2.95611 37.8018 3.29607 37.9065C6.94742 39.0315 10.0242 39.9053 13.0325 40.6503C17.5361 41.7655 21.8864 42.592 27.7815 43.5398C25.5402 43.3132 23.2251 43.0805 20.8214 42.8419C20.2134 43.5408 19.5577 44.1514 18.8327 44.6851C15.4902 47.1454 10.6734 47.9699 2.26086 48.2624ZM77.9073 52.8742C77.9096 52.8742 77.9118 52.8743 77.9141 52.8744L77.9073 52.8742ZM223.993 27.4931L237.25 27.0729V25.7417H223.993C224.258 26.0027 224.531 26.281 224.821 26.5804C224.533 26.9053 224.259 27.2078 223.993 27.4931Z" fill="#762F00"/>
<path d="M94.069 4.24159C120.425 3.47142 135.064 3.69195 160.854 5.55565C172.811 5.92665 180.552 6.67136 190.02 8.07782C193.086 8.53325 196.333 9.05807 199.963 9.66206C200.986 10.5553 201.904 11.4003 202.731 12.2195C204.177 13.6514 205.344 15.004 206.311 16.3962C207.113 17.551 207.776 18.733 208.345 20.0099C208.779 20.9848 209.158 22.015 209.502 23.1308C209.829 24.1943 210.124 25.3355 210.404 26.5804C210.395 26.6353 210.387 26.69 210.379 26.7444C210.187 27.991 209.973 29.1345 209.725 30.1938C209.452 31.3629 209.137 32.4294 208.765 33.4189C208.135 35.0944 207.343 36.549 206.311 37.9065C205.591 38.8544 204.754 39.7549 203.775 40.6503C202.69 41.6419 201.432 42.6271 199.963 43.6632C196.334 44.4527 193.083 45.1175 190.02 45.6769C180.393 47.4352 172.631 48.152 160.854 48.4266L160.083 48.4502C134.54 49.2314 119.982 49.6766 94.069 48.4266C76.2683 47.9653 63.3299 47.0144 49.1929 45.6769C43.9753 45.1832 38.5945 44.6369 32.7456 44.0431L32.724 44.0409L32.7055 44.039C31.1015 43.8761 29.4622 43.7097 27.7815 43.5398C25.5402 43.3132 23.2251 43.0805 20.8214 42.8419C20.2134 43.5408 19.5577 44.1514 18.8327 44.6851C37.0747 48.5169 47.3489 50.1527 65.7311 52.3687C69.4203 52.518 72.9834 52.6672 76.4394 52.8124L77.9073 52.8742L77.9141 52.8744L77.9168 52.8746C118.437 54.5787 144.363 55.6691 187.369 50.0691L189.026 48.4266H197.312C204.651 41.0927 209.077 37.2642 218.689 32.0009C221.037 30.3364 222.367 29.2345 223.993 27.4931C224.259 27.2078 224.533 26.9053 224.821 26.5804C224.531 26.281 224.258 26.0027 223.993 25.7417C222.439 24.2121 221.178 23.2756 218.689 22.1455C208.871 16.3933 204.493 12.315 197.312 4.57005H189.026L187.369 3.42025C139.586 -0.25451 112.922 -0.862714 65.7311 2.27046C47.2646 3.49196 37.0085 4.90788 18.8327 8.33922C19.4882 8.63203 20.1482 8.9618 20.8214 9.33355C23.2254 9.11473 25.5405 8.90612 27.7815 8.70678C30.2611 8.48621 32.6498 8.27698 34.9674 8.07782C55.6408 6.30126 70.6593 5.32538 94.069 4.24159Z" fill="#762F00"/>
<path d="M160.854 48.4266L160.083 48.4502M203.775 40.6503C202.69 41.6419 201.432 42.6271 199.963 43.6632C196.334 44.4527 193.083 45.1175 190.02 45.6769C180.393 47.4352 172.631 48.152 160.854 48.4266C160.596 48.4345 160.339 48.4424 160.083 48.4502C134.54 49.2314 119.982 49.6766 94.069 48.4266C76.2683 47.9653 63.3299 47.0144 49.1929 45.6769M32.724 44.0409C32.7178 44.0402 32.7116 44.0396 32.7055 44.039C31.1015 43.8761 29.4622 43.7097 27.7815 43.5398C25.5402 43.3132 23.2251 43.0805 20.8214 42.8419C20.2134 43.5408 19.5577 44.1514 18.8327 44.6851C15.4902 47.1454 10.6734 47.9699 2.26086 48.2624C-0.43037 31.5616 -0.410181 22.2731 2.26086 5.88416C9.69756 6.04177 14.1524 6.24866 18.8327 8.33923C19.4882 8.63203 20.1482 8.9618 20.8214 9.33355C23.2254 9.11473 25.5405 8.90612 27.7815 8.70678C30.2611 8.48621 32.6498 8.27698 34.9674 8.07782C55.6408 6.30126 70.6593 5.32538 94.069 4.24159C120.425 3.47142 135.064 3.69195 160.854 5.55565C172.811 5.92665 180.552 6.67136 190.02 8.07782M27.7815 43.5398C21.8864 42.592 17.5361 41.7655 13.0325 40.6503M2.1888 16.3962C2.21235 16.2335 2.23637 16.0693 2.26086 15.9038C6.35123 14.3557 9.72008 13.1984 13.0325 12.2195C17.5057 10.8975 21.8761 9.90095 27.7815 8.70678M77.9141 52.8744C77.915 52.8745 77.9159 52.8745 77.9168 52.8746C118.437 54.5787 144.363 55.6691 187.369 50.0691L189.026 48.4266H197.312C204.651 41.0927 209.077 37.2642 218.69 32.0009C221.037 30.3364 222.367 29.2345 223.993 27.4931C224.259 27.2078 224.533 26.9053 224.821 26.5804C224.531 26.281 224.258 26.0027 223.993 25.7417C222.439 24.2121 221.178 23.2756 218.69 22.1455C208.871 16.3933 204.493 12.315 197.312 4.57005H189.026L187.369 3.42025C139.586 -0.25451 112.922 -0.862714 65.7311 2.27046C47.2646 3.49196 37.0085 4.90788 18.8327 8.33923M77.9073 52.8742C77.4201 52.8537 76.9309 52.8331 76.4394 52.8124C72.9834 52.6672 69.4203 52.518 65.7311 52.3687C47.3489 50.1527 37.0747 48.5169 18.8327 44.6851M223.993 25.7417H237.25V27.0729L223.993 27.4931M77.9168 52.8746L77.9141 52.8744M32.724 44.0409C32.7312 44.0416 32.7384 44.0423 32.7456 44.0431C38.5945 44.6369 43.9753 45.1832 49.1929 45.6769M32.7456 44.0431L32.724 44.0409M1.32595 26.7444H210.379M1.44019 30.1938C1.36516 29.0101 1.32738 27.8726 1.32595 26.7444C1.32443 25.5444 1.36405 24.3547 1.44374 23.1308C1.50941 22.1221 1.6023 21.0901 1.72181 20.0099M208.765 33.4189C209.137 32.4294 209.452 31.3629 209.725 30.1938C209.973 29.1345 210.187 27.991 210.379 26.7444C210.387 26.69 210.395 26.6353 210.404 26.5804C210.124 25.3355 209.829 24.1943 209.502 23.1308M1.44374 23.1308H209.502M202.731 12.2195C204.177 13.6514 205.344 15.004 206.311 16.3962C207.113 17.551 207.776 18.733 208.345 20.0099C208.779 20.9848 209.158 22.015 209.502 23.1308M1.72181 20.0099H208.345M1.72181 20.0099C1.84802 18.869 2.00392 17.6743 2.1888 16.3962M206.311 16.3962H2.1888M13.0325 12.2195H202.731M202.731 12.2195C201.904 11.4003 200.986 10.5553 199.963 9.66206C196.333 9.05807 193.086 8.53325 190.02 8.07782M190.02 8.07782H34.9674M209.725 30.1938H1.44019M3.29607 37.9065C2.95611 37.8017 2.61118 37.6948 2.26086 37.5856C2.0423 36.0925 1.86291 34.716 1.72181 33.4189C1.59926 32.2923 1.50558 31.2254 1.44019 30.1938M1.72181 33.4189H208.765M203.775 40.6503C204.754 39.7549 205.591 38.8544 206.311 37.9065C207.343 36.549 208.135 35.0944 208.765 33.4189M206.311 37.9065H3.29607M3.29607 37.9065C6.94742 39.0315 10.0242 39.9053 13.0325 40.6503M13.0325 40.6503H203.775M190.02 45.6769H49.1929M32.724 44.0409L32.7055 44.039M76.4394 52.8124L77.9073 52.8742M77.9141 52.8744L77.9073 52.8742M77.9141 52.8744C77.9118 52.8743 77.9096 52.8742 77.9073 52.8742" stroke="black" stroke-width="0.5"/>
</svg>
