<svg width="926" height="229" viewBox="0 0 926 229" fill="none" xmlns="http://www.w3.org/2000/svg">
<path d="M820.236 116.332H5.19484C5.2004 120.762 5.34772 125.227 5.64024 129.874H817.688C818.655 125.716 819.489 121.226 820.236 116.332Z" fill="#4A1E01" fill-opacity="0.7"/>
<path d="M804.377 160.154H12.8758C27.1115 164.57 39.1069 168.001 50.8356 170.926H794.489C798.306 167.411 801.568 163.875 804.377 160.154Z" fill="#4A1E01" fill-opacity="0.7"/>
<path d="M6.73818 142.536C7.28831 147.628 7.98769 153.032 8.83979 158.894C10.2056 159.323 11.5504 159.743 12.8758 160.154H804.377C808.399 154.824 811.49 149.114 813.944 142.536H6.73818Z" fill="#4A1E01" fill-opacity="0.7"/>
<path d="M817.688 129.874H5.64024C5.89517 133.924 6.26039 138.113 6.73818 142.536H813.944C815.394 138.651 816.622 134.464 817.688 129.874Z" fill="#4A1E01" fill-opacity="0.7"/>
<path d="M127.607 184.237L127.692 184.245C150.495 186.577 171.473 188.722 191.815 190.66H740.863C752.804 188.464 765.48 185.854 779.629 182.754C785.354 178.687 790.261 174.819 794.489 170.926H50.8356C68.394 175.304 85.3544 178.549 108.338 182.27C114.891 182.937 121.282 183.59 127.535 184.229C127.559 184.232 127.583 184.234 127.607 184.237Z" fill="#4A1E01" fill-opacity="0.7"/>
<path d="M624.148 201.548L627.151 201.455C673.066 200.377 703.332 197.563 740.863 190.66H191.815C246.932 195.911 297.375 199.644 366.775 201.455C467.805 206.362 524.562 204.614 624.148 201.548Z" fill="#4A1E01" fill-opacity="0.7"/>
<path d="M820.236 116.332C820.268 116.118 820.301 115.904 820.333 115.689C819.244 110.801 818.094 106.321 816.817 102.145H5.65407C5.34338 106.95 5.18892 111.621 5.19484 116.332H820.236Z" fill="#4A1E01" fill-opacity="0.7"/>
<path d="M5.65407 102.145H816.817C815.478 97.765 814 93.7203 812.307 89.893H6.73818C6.27226 94.134 5.91011 98.1854 5.65407 102.145Z" fill="#4A1E01" fill-opacity="0.7"/>
<path d="M6.73818 89.893H812.307C810.089 84.8799 807.503 80.2396 804.377 75.7061H8.55887C7.83805 80.7236 7.23024 85.4141 6.73818 89.893Z" fill="#4A1E01" fill-opacity="0.7"/>
<path d="M8.83979 73.7726C8.74432 74.4226 8.65068 75.067 8.55887 75.7061H804.377C800.608 70.2404 796.056 64.9299 790.42 59.3084H50.8356C37.9213 63.1515 24.7871 67.6951 8.83979 73.7726Z" fill="#4A1E01" fill-opacity="0.7"/>
<path d="M108.338 45.5178C85.3143 50.2061 68.2755 54.1186 50.8356 59.3084H790.42C787.196 56.0926 783.618 52.7749 779.629 49.2682C765.477 46.897 752.817 44.8366 740.863 43.0486H136.354C127.318 43.8305 118.005 44.6519 108.338 45.5178Z" fill="#4A1E01" fill-opacity="0.7"/>
<path d="M627.151 33.1467C526.605 25.83 469.53 24.9642 366.775 27.9878C275.507 32.2427 216.954 36.074 136.354 43.0486H740.863C703.949 37.5269 673.768 34.6032 627.151 33.1467Z" fill="#4A1E01" fill-opacity="0.7"/>
<path fill-rule="evenodd" clip-rule="evenodd" d="M8.83979 200.81C-1.65258 135.244 -1.57387 98.7782 8.83979 34.4364C37.8335 35.0552 55.2016 35.8674 73.4489 44.0748C76.0047 45.2244 78.5777 46.519 81.2023 47.9785C90.5748 47.1194 99.601 46.3004 108.338 45.5178C85.3143 50.2061 68.2755 54.1186 50.8356 59.3084C37.9213 63.1515 24.7871 67.6951 8.83979 73.7726C8.74432 74.4226 8.65068 75.067 8.55887 75.7061C7.83805 80.7236 7.23024 85.4141 6.73818 89.893C6.27226 94.134 5.91011 98.1854 5.65407 102.145C5.34338 106.95 5.18892 111.621 5.19484 116.332C5.2004 120.762 5.34772 125.227 5.64024 129.874C5.89517 133.924 6.26039 138.113 6.73818 142.536C7.28831 147.628 7.98769 153.032 8.83979 158.894C10.2056 159.323 11.5504 159.743 12.8758 160.154C27.1115 164.57 39.1069 168.001 50.8356 170.926C68.394 175.304 85.3544 178.549 108.338 182.27C99.5998 181.38 90.5739 180.467 81.2023 179.53C78.832 182.274 76.2757 184.671 73.4489 186.766C60.4174 196.425 41.6381 199.662 8.83979 200.81ZM303.765 218.916C303.774 218.916 303.783 218.916 303.792 218.917L303.765 218.916ZM873.313 119.271L925 117.622V112.396H873.313C874.346 113.42 875.413 114.513 876.543 115.689C875.42 116.964 874.351 118.151 873.313 119.271Z" fill="#762F00" fill-opacity="0.57"/>
<path d="M366.775 27.9878C469.53 24.9642 526.605 25.83 627.151 33.1467C673.768 34.6032 703.949 37.5269 740.863 43.0486C752.817 44.8366 765.477 46.897 779.629 49.2682C783.618 52.7749 787.196 56.0926 790.42 59.3084C796.056 64.9299 800.608 70.2404 804.377 75.7061C807.503 80.2396 810.089 84.8799 812.307 89.893C814 93.7203 815.478 97.765 816.817 102.145C818.094 106.321 819.244 110.801 820.333 115.689C820.301 115.904 820.268 116.118 820.236 116.332C819.489 121.226 818.655 125.716 817.688 129.874C816.622 134.464 815.394 138.651 813.944 142.536C811.49 149.114 808.399 154.824 804.377 160.154C801.568 163.875 798.306 167.411 794.489 170.926C790.261 174.819 785.354 178.687 779.629 182.754C765.48 185.854 752.804 188.464 740.863 190.66C703.332 197.563 673.066 200.377 627.151 201.455L624.148 201.548C524.562 204.614 467.805 206.362 366.775 201.455C297.375 199.644 246.932 195.911 191.815 190.66C171.473 188.722 150.495 186.577 127.692 184.245L127.607 184.237L127.535 184.229C121.282 183.59 114.891 182.937 108.338 182.27C99.5998 181.38 90.5739 180.467 81.2023 179.53C78.832 182.274 76.2757 184.671 73.4489 186.766C144.57 201.809 184.626 208.231 256.293 216.931C270.677 217.518 284.568 218.103 298.042 218.673L303.765 218.916L303.792 218.917L303.802 218.917C461.779 225.608 562.857 229.889 730.526 207.903L736.987 201.455H769.292C797.904 172.662 815.16 157.632 852.638 136.969C861.789 130.434 866.974 126.108 873.313 119.271C874.351 118.151 875.42 116.964 876.543 115.689C875.413 114.513 874.346 113.42 873.313 112.396C867.254 106.391 862.338 102.714 852.638 98.2773C814.356 75.6944 797.29 59.6835 769.292 29.2773H736.987L730.526 24.7633C544.233 10.3365 440.279 7.9487 256.293 20.2493C184.297 25.0448 144.312 30.6036 73.4489 44.0748C76.0047 45.2244 78.5777 46.519 81.2023 47.9785C90.5748 47.1194 99.601 46.3004 108.338 45.5178C118.005 44.6519 127.318 43.8305 136.354 43.0486C216.954 36.074 275.507 32.2427 366.775 27.9878Z" fill="#762F00" fill-opacity="0.57"/>
<path d="M627.151 201.455L624.148 201.548M794.489 170.926C790.261 174.819 785.354 178.687 779.629 182.754C765.48 185.854 752.804 188.464 740.863 190.66C703.332 197.563 673.066 200.377 627.151 201.455C626.146 201.486 625.145 201.517 624.148 201.548C524.562 204.614 467.805 206.362 366.775 201.455C297.375 199.644 246.932 195.911 191.815 190.66M127.607 184.237C127.583 184.234 127.559 184.232 127.535 184.229C121.282 183.59 114.891 182.937 108.338 182.27C99.5998 181.38 90.5739 180.467 81.2023 179.53C78.832 182.274 76.2757 184.671 73.4489 186.766C60.4174 196.425 41.6381 199.662 8.83979 200.81C-1.65258 135.244 -1.57387 98.7782 8.83979 34.4364C37.8335 35.0552 55.2016 35.8674 73.4489 44.0748C76.0047 45.2244 78.5777 46.519 81.2023 47.9785C90.5748 47.1194 99.601 46.3004 108.338 45.5178C118.005 44.6519 127.318 43.8305 136.354 43.0486C216.954 36.074 275.507 32.2427 366.775 27.9878C469.53 24.9642 526.605 25.83 627.151 33.1467C673.768 34.6032 703.949 37.5269 740.863 43.0486M108.338 182.27C85.3544 178.549 68.394 175.304 50.8356 170.926M8.55887 75.7061C8.65068 75.067 8.74432 74.4226 8.83979 73.7726C24.7871 67.6951 37.9213 63.1515 50.8356 59.3084C68.2755 54.1186 85.3143 50.2061 108.338 45.5178M303.792 218.917C303.795 218.917 303.799 218.917 303.802 218.917C461.779 225.608 562.857 229.889 730.526 207.903L736.987 201.455H769.292C797.904 172.662 815.16 157.632 852.638 136.969C861.789 130.434 866.974 126.108 873.313 119.271C874.351 118.151 875.42 116.964 876.543 115.689C875.413 114.513 874.346 113.42 873.313 112.396C867.254 106.391 862.338 102.714 852.638 98.2773C814.356 75.6944 797.29 59.6835 769.292 29.2773H736.987L730.526 24.7633C544.233 10.3365 440.279 7.9487 256.293 20.2493C184.297 25.0448 144.312 30.6036 73.4489 44.0748M303.765 218.916C301.866 218.835 299.958 218.754 298.042 218.673C284.568 218.103 270.677 217.518 256.293 216.931C184.626 208.231 144.57 201.809 73.4489 186.766M873.313 112.396H925V117.622L873.313 119.271M303.802 218.917L303.792 218.917M127.607 184.237C127.636 184.24 127.664 184.243 127.692 184.245C150.495 186.577 171.473 188.722 191.815 190.66M127.692 184.245L127.607 184.237M5.19484 116.332H820.236M5.64024 129.874C5.34772 125.227 5.2004 120.762 5.19484 116.332C5.18892 111.621 5.34338 106.95 5.65407 102.145C5.91011 98.1854 6.27226 94.134 6.73818 89.893M813.944 142.536C815.394 138.651 816.622 134.464 817.688 129.874C818.655 125.716 819.489 121.226 820.236 116.332C820.268 116.118 820.301 115.904 820.333 115.689C819.244 110.801 818.094 106.321 816.817 102.145M5.65407 102.145H816.817M790.42 59.3084C796.056 64.9299 800.608 70.2404 804.377 75.7061C807.503 80.2396 810.089 84.8799 812.307 89.893C814 93.7203 815.478 97.765 816.817 102.145M6.73818 89.893H812.307M6.73818 89.893C7.23024 85.4141 7.83805 80.7236 8.55887 75.7061M804.377 75.7061H8.55887M50.8356 59.3084H790.42M790.42 59.3084C787.196 56.0926 783.618 52.7749 779.629 49.2682C765.477 46.897 752.817 44.8366 740.863 43.0486M740.863 43.0486H136.354M817.688 129.874H5.64024M12.8758 160.154C11.5504 159.743 10.2056 159.323 8.83979 158.894C7.98769 153.032 7.28831 147.628 6.73818 142.536C6.26039 138.113 5.89517 133.924 5.64024 129.874M6.73818 142.536H813.944M794.489 170.926C798.306 167.411 801.568 163.875 804.377 160.154C808.399 154.824 811.49 149.114 813.944 142.536M804.377 160.154H12.8758M12.8758 160.154C27.1115 164.57 39.1069 168.001 50.8356 170.926M50.8356 170.926H794.489M740.863 190.66H191.815M127.607 184.237L127.535 184.229M298.042 218.673L303.765 218.916M303.792 218.917L303.765 218.916M303.792 218.917C303.783 218.916 303.774 218.916 303.765 218.916" stroke="black" stroke-width="2"/>
<path d="M600.107 164.207L496.305 224.514L551.602 219.933L600.942 174.286L695.311 172.749L739.133 91.3168L693.959 156.431L600.107 164.207Z" fill="#D9D9D9"/>
<path d="M497.038 37.3278L702.061 21.9188L597.728 17.1116L497.262 32.4599L320.323 21.2875L223.842 54.2415L319.96 29.1688L497.038 37.3278Z" fill="#D9D9D9"/>
<path d="M223.803 183.317L172 207.98L223.803 212.392L253 172.817L340.5 147.187L419 101.317L340.5 133.154L239.5 157.817L223.803 183.317Z" fill="#D9D9D9"/>
</svg>
