<svg width="575" height="123" viewBox="0 0 575 123" fill="none" xmlns="http://www.w3.org/2000/svg">
<path fill-rule="evenodd" clip-rule="evenodd" d="M361 108.501H246L185 102.751L124 97.0007L73.2857 87.0007L27.1912 77.9117L17.5 76.0007V68.0007V60.5007V52.7507V45.0007L20.0976 44.5007L61.6585 36.5007L106.5 27.8693L124 24.5007C171.043 18.4457 197.255 14.8389 246 11.0007C290.901 11.1385 316.085 12.1556 361 14.5007L394.5 18.7507L428 23.0007V28.0007V36.5007V44.5007V47.5007V52.7507V60.5007V69.0007V78.0007V87.0007V96.0007L394.5 102.251L361 108.501Z" fill="#762F00" fill-opacity="0.57"/>
<path fill-rule="evenodd" clip-rule="evenodd" d="M361 108.501H246L185 102.751L124 97.0007L73.2857 87.0007L27.1912 77.9117L17.5 76.0007V68.0007V60.5007V52.7507V45.0007L20.0976 44.5007L61.6585 36.5007L106.5 27.8693L124 24.5007C171.043 18.4457 197.255 14.8389 246 11.0007C290.901 11.1385 316.085 12.1556 361 14.5007L394.5 18.7507L428 23.0007V28.0007V36.5007V44.5007V47.5007V52.7507V60.5007V69.0007V78.0007V87.0007V96.0007L394.5 102.251L361 108.501Z" fill="#4A1E01" fill-opacity="0.7"/>
<path fill-rule="evenodd" clip-rule="evenodd" d="M11.5 84.0007V100.001L86.5 108.501L88.5 106.501L188 116.001L288 120.001L355.5 117.001L411.5 110.501L414.5 105.001L526 62.0007H539H574V55.0007H539H526L414.5 14.5007L411.5 8.00073L293 0.500732L188 5.00073L88.5 15.0007L13.5 22.5007V37.0007L5.5 42.5007L0.5 46.5007V76.0007L5.5 80.0007L11.5 84.0007ZM361 108.501H246L185 102.751L124 97.0007L73.2857 87.0007L27.1912 77.9117L17.5 76.0007V68.0007V60.5007V52.7507V45.0007L20.0976 44.5007L61.6585 36.5007L106.5 27.8693L124 24.5007C171.043 18.4457 197.255 14.8389 246 11.0007C290.901 11.1385 316.085 12.1556 361 14.5007L394.5 18.7507L428 23.0007V28.0007V36.5007V44.5007V47.5007V52.7507V60.5007V69.0007V78.0007V87.0007V96.0007L394.5 102.251L361 108.501Z" fill="#762F00" fill-opacity="0.57"/>
<path d="M526 62.0007L414.5 105.001L411.5 110.501L355.5 117.001L288 120.001L188 116.001L88.5 106.501L86.5 108.501L11.5 100.001V84.0007L5.5 80.0007L0.5 76.0007V46.5007L5.5 42.5007L13.5 37.0007V22.5007L88.5 15.0007L188 5.00073L293 0.500732L411.5 8.00073L414.5 14.5007L526 55.0007M526 62.0007H539H574V55.0007H539M526 62.0007H436.5M539 55.0007H526M539 55.0007H436.5H526M17.5 60.5007H428M17.5 60.5007V68.0007M17.5 60.5007V52.7507M428 60.5007V69.0007M428 60.5007V52.7507M428 69.0007L17.5 68.0007M428 69.0007V47.5007M428 69.0007V78.0007M185 102.751L124 97.0007L73.2857 87.0007L27.1912 77.9117L17.5 76.0007V68.0007M17.5 68.0007V52.7507M17.5 52.7507V45.0007L20.0976 44.5007M17.5 52.7507H428M428 52.7507V47.5007M428 47.5007V44.5007M428 44.5007H20.0976M428 44.5007V36.5007M20.0976 44.5007L61.6585 36.5007M428 78.0007V87.0007M428 78.0007L227.596 77.9562L27.1912 77.9117M428 36.5007H61.6585M428 36.5007V28.0007M394.5 18.7507L361 14.5007C316.085 12.1556 290.901 11.1385 246 11.0007C197.255 14.8389 171.043 18.4457 124 24.5007L106.5 27.8693L61.6585 36.5007M428 28.0007V23.0007L394.5 18.7507M428 28.0007L106.5 27.8693M428 87.0007V96.0007L394.5 102.251M428 87.0007H73.2857M394.5 102.251L361 108.501H246L185 102.751M394.5 102.251L185 102.751M394.5 18.7507H169.035" stroke="black"/>
<path d="M179.647 94.9035L118.367 110.102L148.758 112.888L179.276 98.9548L230.627 106.192L261.077 77.6619L231.228 99.6324L179.647 94.9035Z" fill="#D9D9D9"/>
<path d="M371 30.4056L393.778 6.77872L378.2 5.5713L362 43.0007L345 50.5007L317.268 71.9804L365.5 50.5007L371 30.4056Z" fill="#D9D9D9"/>
<path d="M169.5 7.00073L160 8.00073L164 23.0007L172.5 28.5007L180.5 33.0007L185 41.0007V28.5007L172.5 23.0007L169.5 7.00073Z" fill="#D9D9D9"/>
</svg>
