<svg width="434" height="121" viewBox="0 0 434 121" fill="none" xmlns="http://www.w3.org/2000/svg">
<path d="M345.51 62.9321C343.873 47.2329 339.496 40.438 328.01 30.4325C250.595 20.8032 208.356 23.1388 132.51 23.9325C126.845 24.5303 124.402 25.591 121.01 28.4325C120.522 57.3443 120.251 73.5536 122.51 101.932C125.008 103.831 127.594 104.243 134.01 103.932C210.512 104.133 253.48 105.77 329.51 96.4325C339.256 85.0892 343.075 77.9074 345.51 62.9321Z" fill="#4A1E01" fill-opacity="0.7"/>
<path d="M299.01 18.9321C231.14 17.6944 192.952 18.1179 124.51 21.9321C98.247 24.0465 79.0044 26.5156 59.0098 30.9115C54.2923 37.5201 51.1126 40.882 44.0098 45.9325C37.5116 40.2578 32.7367 38.8206 21.0098 41.0969C18.5698 41.8442 16.0727 42.622 13.5098 43.4321C5.00505 50.1229 2.25626 55.1052 0.509766 65.9321C2.84464 75.4613 5.43715 80.4559 13.5098 88.4321C16.073 89.179 18.5703 89.8941 21.0098 90.5792C33.073 90.8986 38.644 89.5664 46.0098 83.9325C53.1334 89.9395 56.8173 93.6061 63.0098 100.563C81.8081 104.052 100.157 106.013 124.51 107.932C191.831 111.157 229.975 111.407 299.01 107.932C351.466 99.9936 378.015 89.6964 420.698 63.4325H410.255C409.415 64.9125 407.968 66.0146 405.01 67.9325C380.617 81.7451 364.25 88.0678 329.51 96.4325C253.48 105.77 210.512 104.133 134.01 103.932C127.594 104.243 125.008 103.831 122.51 101.932C120.251 73.5536 120.522 57.3443 121.01 28.4325C124.402 25.591 126.845 24.5303 132.51 23.9325C208.356 23.1388 250.595 20.8032 328.01 30.4325C357.091 34.5927 374.263 42.3494 405.01 56.9325C407.328 58.7446 408.615 59.9441 409.625 61.4325H418.724C376.582 38.8335 350.254 28.6703 299.01 18.9321Z" fill="#762F00" fill-opacity="0.57"/>
<path d="M21.0098 41.0969C32.7367 38.8206 37.5116 40.2578 44.0098 45.9325C51.1126 40.882 54.2923 37.5201 59.0098 30.9115C47.1486 33.5192 35.0228 36.8049 21.0098 41.0969Z" fill="#4A1E01" fill-opacity="0.7"/>
<path d="M46.0098 83.9325C38.644 89.5664 33.073 90.8986 21.0098 90.5792C36.6695 94.9769 49.948 98.1388 63.0098 100.563C56.8173 93.6061 53.1334 89.9395 46.0098 83.9325Z" fill="#4A1E01" fill-opacity="0.7"/>
<path d="M328.01 30.4325C339.496 40.438 343.873 47.2329 345.51 62.9321C343.075 77.9074 339.256 85.0892 329.51 96.4325C364.25 88.0678 380.617 81.7451 405.01 67.9325C407.968 66.0146 409.415 64.9125 410.255 63.4325C410.347 63.2707 410.431 63.1044 410.51 62.9321C410.226 62.3862 409.939 61.8954 409.625 61.4325C408.615 59.9441 407.328 58.7446 405.01 56.9325C374.263 42.3494 357.091 34.5927 328.01 30.4325Z" fill="#762F00" fill-opacity="0.57"/>
<path d="M433.51 63.4325V61.4325H418.724C419.645 61.9264 420.573 62.4262 421.51 62.9321L421.225 63.1078C421.049 63.2163 420.873 63.3245 420.698 63.4325H433.51Z" fill="#762F00" fill-opacity="0.57"/>
<path d="M410.255 63.4325H420.698L421.225 63.1078L421.51 62.9321C420.573 62.4262 419.645 61.9264 418.724 61.4325H409.625C409.939 61.8954 410.226 62.3862 410.51 62.9321C410.431 63.1044 410.347 63.2707 410.255 63.4325Z" fill="#762F00" fill-opacity="0.57"/>
<path d="M420.698 63.4325C420.873 63.3245 421.049 63.2163 421.225 63.1078C421.32 63.0493 421.415 62.9907 421.51 62.9321C420.573 62.4262 419.645 61.9264 418.724 61.4325M421.51 62.9321L421.225 63.1078M328.01 30.4325C339.496 40.438 343.873 47.2329 345.51 62.9321C343.075 77.9074 339.256 85.0892 329.51 96.4325M410.255 63.4325C409.415 64.9125 407.968 66.0146 405.01 67.9325C380.617 81.7451 364.25 88.0678 329.51 96.4325C253.48 105.77 210.512 104.133 134.01 103.932C127.594 104.243 125.008 103.831 122.51 101.932C120.251 73.5536 120.522 57.3443 121.01 28.4325C124.402 25.591 126.845 24.5303 132.51 23.9325C208.356 23.1388 250.595 20.8032 328.01 30.4325C357.091 34.5927 374.263 42.3494 405.01 56.9325C407.328 58.7446 408.615 59.9441 409.625 61.4325M354.51 60.9325H380.01V61.4325H409.625M354.51 64.9325H380.01V63.4325H410.255M21.0098 90.5792C18.5703 89.8941 16.073 89.179 13.5098 88.4321C5.43715 80.4559 2.84464 75.4613 0.509766 65.9321C2.25626 55.1052 5.00505 50.1229 13.5098 43.4321C16.0727 42.622 18.5698 41.8442 21.0098 41.0969M21.0098 90.5792C33.073 90.8986 38.644 89.5664 46.0098 83.9325C53.1334 89.9395 56.8173 93.6061 63.0098 100.563M420.698 63.4325C378.015 89.6964 351.466 99.9936 299.01 107.932C229.975 111.407 191.831 111.157 124.51 107.932C100.157 106.013 81.8081 104.052 63.0098 100.563C49.948 98.1388 36.6695 94.9769 21.0098 90.5792M21.0098 41.0969C32.7367 38.8206 37.5116 40.2578 44.0098 45.9325C51.1126 40.882 54.2923 37.5201 59.0098 30.9115M21.0098 41.0969C35.0228 36.8049 47.1486 33.5192 59.0098 30.9115M59.0098 30.9115C79.0044 26.5156 98.247 24.0465 124.51 21.9321C192.952 18.1179 231.14 17.6944 299.01 18.9321C350.254 28.6703 376.582 38.8335 418.724 61.4325M420.698 63.4325H410.255M420.698 63.4325H433.51V61.4325H418.724M420.698 63.4325L421.225 63.1078M410.255 63.4325C410.347 63.2707 410.431 63.1044 410.51 62.9321C410.226 62.3862 409.939 61.8954 409.625 61.4325M409.625 61.4325H418.724" stroke="black"/>
<path d="M174.027 63.5626L70.5098 102.656L121.595 106.672L173.303 72.7754L259.559 85.2944L311.51 18.3109L260.731 70.3786L174.027 63.5626Z" fill="#D9D9D9"/>
</svg>
