<svg width="1537" height="226" viewBox="0 0 1537 226" fill="none" xmlns="http://www.w3.org/2000/svg">
<path fill-rule="evenodd" clip-rule="evenodd" d="M386.308 6.461C644.078 -4.6231 783.74 4.22818 1037.22 6.461C1116.06 50.2598 1163.23 75.1216 1241.91 107.728C1247.86 110.193 1253.99 112.704 1260.33 115.269C1254.74 117.566 1249.31 119.81 1244.02 122.009C1158.05 157.752 1110.15 181.511 1037.22 225H386.308L331.913 215.779L11.9903 204.714C-2.98767 135.978 -2.3356 96.9974 11.9903 26.7473C137.518 16.6222 207.462 14.6783 331.913 13.8378L386.308 6.461ZM798.427 211.168C854.318 211.364 931.19 210.246 946.864 201.947C955.502 197.373 959.739 193.744 963.611 189.96C964.289 189.298 964.957 188.63 965.634 187.952L965.648 187.938L965.652 187.934L965.655 187.931C968.121 185.463 970.728 182.853 974.523 179.817C976.827 172.604 978.699 165.886 980.193 159.531C983.795 144.209 985.202 130.994 985.181 118.036C985.16 104.615 983.608 91.469 981.377 76.5415C980.628 71.5277 979.802 66.3128 978.932 60.8191L978.932 60.8159C978.695 59.3168 978.454 57.7969 978.211 56.2547C973.019 50.8561 968.368 46.3089 963.611 42.2154C953.502 33.5167 942.916 26.8667 925.659 18.4484C877.382 15.1777 849.581 15.0588 798.427 18.4484C633.964 16.6049 537.861 17.1886 354.962 23.0589C232.099 26.6346 163.273 30.3614 40.5712 38.7347C40.5261 39.9046 40.4818 41.0648 40.4382 42.2154C39.9535 54.9868 39.5587 66.5901 39.2612 77.4636C38.8652 91.9359 38.6415 105.116 38.6079 118.036C38.5721 131.748 38.7503 145.167 39.1635 159.531C39.4396 169.13 39.8207 179.15 40.3129 189.96C40.3959 191.782 40.482 193.625 40.5712 195.493C163.318 203.268 232.162 204.863 354.962 204.714C526.724 217.308 623.993 217.52 798.427 211.168Z" fill="#762F00" fill-opacity="0.57"/>
<path fill-rule="evenodd" clip-rule="evenodd" d="M798.427 211.168C854.318 211.364 931.19 210.246 946.864 201.947C955.502 197.373 959.739 193.744 963.611 189.96C964.289 189.298 964.957 188.63 965.634 187.952L965.648 187.938L965.652 187.934L965.655 187.931C968.121 185.463 970.728 182.853 974.523 179.817C976.827 172.604 978.699 165.886 980.193 159.531C983.795 144.209 985.202 130.994 985.181 118.036C985.16 104.615 983.608 91.469 981.377 76.5415C980.628 71.5277 979.802 66.3128 978.932 60.8191L978.932 60.8159C978.695 59.3168 978.454 57.7969 978.211 56.2547C973.019 50.8561 968.368 46.3089 963.611 42.2154C953.502 33.5167 942.916 26.8667 925.659 18.4484C877.382 15.1777 849.581 15.0588 798.427 18.4484C633.964 16.6049 537.861 17.1886 354.962 23.0589C232.099 26.6346 163.273 30.3614 40.5712 38.7347C40.5261 39.9046 40.4818 41.0648 40.4382 42.2154C39.9535 54.9868 39.5587 66.5901 39.2612 77.4636C38.8652 91.9359 38.6415 105.116 38.6079 118.036C38.5721 131.748 38.7503 145.167 39.1635 159.531C39.4396 169.13 39.8207 179.15 40.3129 189.96C40.3959 191.782 40.482 193.625 40.5712 195.493C163.318 203.268 232.162 204.863 354.962 204.714C526.724 217.308 623.993 217.52 798.427 211.168Z" fill="#4A1E01" fill-opacity="0.7"/>
<path d="M1536 115.269V125.413L1244.02 122.009C1249.31 119.81 1254.74 117.566 1260.33 115.269C1253.99 112.704 1247.86 110.193 1241.91 107.728L1536 115.269Z" fill="#762F00" fill-opacity="0.57"/>
<path d="M1244.02 122.009C1158.05 157.752 1110.15 181.511 1037.22 225H386.308L331.913 215.779L11.9903 204.714C-2.98767 135.978 -2.3356 96.9974 11.9903 26.7473C137.518 16.6222 207.462 14.6783 331.913 13.8378C353.156 10.957 365.065 9.34184 386.308 6.461C644.078 -4.6231 783.74 4.22818 1037.22 6.461C1116.06 50.2598 1163.23 75.1216 1241.91 107.728M386.308 6.461L331.913 13.8378M1140.48 105.126L1241.91 107.728M1140.48 120.802L1244.02 122.009M980.193 159.531C978.699 165.886 976.827 172.604 974.523 179.817C970.728 182.853 968.121 185.463 965.655 187.931L965.652 187.934L965.648 187.938C965.643 187.943 965.639 187.947 965.634 187.952C964.957 188.63 964.289 189.298 963.611 189.96C959.739 193.744 955.502 197.373 946.864 201.947C931.19 210.246 854.318 211.364 798.427 211.168C623.993 217.52 526.724 217.308 354.962 204.714C232.162 204.863 163.318 203.268 40.5712 195.493C40.482 193.625 40.3959 191.782 40.3129 189.96C39.8207 179.15 39.4396 169.13 39.1635 159.531M963.611 189.96H40.3129M985.181 118.036H38.6079M980.193 159.531C983.795 144.209 985.202 130.994 985.181 118.036C985.16 104.615 983.608 91.469 981.377 76.5415M40.4382 42.2154C39.9535 54.9868 39.5587 66.5901 39.2612 77.4636C38.8652 91.9359 38.6415 105.116 38.6079 118.036M38.6079 118.036C38.5721 131.748 38.7503 145.167 39.1635 159.531M39.2612 77.4636L981.377 76.5415M40.4382 42.2154C40.4818 41.0648 40.5261 39.9046 40.5712 38.7347C163.273 30.3614 232.099 26.6346 354.962 23.0589C537.861 17.1886 633.964 16.6049 798.427 18.4484C849.581 15.0588 877.382 15.1777 925.659 18.4484C942.916 26.8667 953.502 33.5167 963.611 42.2154C968.368 46.3089 973.019 50.8561 978.211 56.2547C978.454 57.7969 978.695 59.3168 978.932 60.8159L978.932 60.8191C979.802 66.3128 980.628 71.5277 981.377 76.5415M39.1635 159.531H980.193M963.611 42.2154H40.4382M1241.91 107.728L1536 115.269V125.413L1244.02 122.009M1241.91 107.728C1247.86 110.193 1253.99 112.704 1260.33 115.269C1254.74 117.566 1249.31 119.81 1244.02 122.009M965.648 187.938L965.634 187.952" stroke="black" stroke-width="2"/>
<path d="M224.035 157.571L117 209.994L171.497 210.544L223.929 168.071L316.358 175.504L366.668 95.5073L316.53 158.505L224.035 157.571Z" fill="#D9D9D9"/>
<path d="M826.68 54.8232L935.412 3.93955L879.927 3.60922L826.741 44.71L732.606 37.8888L681.749 115.123L732.508 54.2625L826.68 54.8232Z" fill="#D9D9D9"/>
</svg>
