<svg width="1111" height="234" viewBox="0 0 1111 234" fill="none" xmlns="http://www.w3.org/2000/svg">
<path d="M433.7 51.7116C364.653 49.8141 328.039 50.1424 265.7 55.7119C263.51 55.817 261.344 55.9237 259.2 56.032L608.2 60.3298C575.127 54.5232 552.725 52.7445 515.7 51.7116H433.7Z" fill="#4A1E01" fill-opacity="0.7"/>
<path d="M630.2 64.6394C627.304 63.9923 624.31 63.3511 621.2 62.7116C616.665 61.85 612.349 61.0582 608.2 60.3298L259.2 56.032C218.525 58.0861 185.965 60.7169 154.2 64.4202L630.2 64.6394Z" fill="#4A1E01" fill-opacity="0.7"/>
<path d="M88.2872 73.6049H663.2C653.226 70.3003 642.628 67.4166 630.2 64.6394L154.2 64.4202C132.627 66.9353 111.42 69.9451 88.2872 73.6049Z" fill="#4A1E01" fill-opacity="0.7"/>
<path d="M67.2 77.0263L681.2 80.2628C675.249 77.8349 669.343 75.6401 663.2 73.6049H88.2872C81.4463 74.6872 74.437 75.8263 67.2 77.0263Z" fill="#4A1E01" fill-opacity="0.7"/>
<path d="M33.7001 82.7116C33.6174 83.8943 33.537 85.0608 33.4589 86.2119L699.2 88.1918C692.976 85.2755 687.066 82.6559 681.2 80.2628L67.2 77.0263C56.5857 78.7863 45.4814 80.6771 33.7001 82.7116Z" fill="#4A1E01" fill-opacity="0.7"/>
<path d="M699.2 88.1918L33.4589 86.2119C33.2845 88.7842 33.1218 91.2803 32.9709 93.7119L715.2 95.9571C709.56 93.1458 704.276 90.5701 699.2 88.1918Z" fill="#4A1E01" fill-opacity="0.7"/>
<path d="M719.7 98.2116C718.174 97.4435 716.675 96.6923 715.2 95.9571L32.9709 93.7119C32.8226 96.104 32.6858 98.4336 32.5609 100.712L729.669 103.712L719.7 98.2116Z" fill="#4A1E01" fill-opacity="0.7"/>
<path d="M729.669 103.712L32.5609 100.712C32.4206 103.271 32.2953 105.766 32.1855 108.212L742.7 110.901L729.669 103.712Z" fill="#4A1E01" fill-opacity="0.7"/>
<path d="M742.7 110.901L32.1855 108.212C32.0633 110.932 31.9603 113.592 31.877 116.212L757.2 118.901L742.7 110.901Z" fill="#4A1E01" fill-opacity="0.7"/>
<path d="M757.2 118.901L31.877 116.212C31.8019 118.572 31.7429 120.9 31.7003 123.212L770.2 126.074L757.2 118.901Z" fill="#4A1E01" fill-opacity="0.7"/>
<path d="M777.7 130.212L770.2 126.074L31.7003 123.212C31.6478 126.059 31.6202 128.883 31.6184 131.712L777.7 134.462V130.212Z" fill="#4A1E01" fill-opacity="0.7"/>
<path d="M777.7 138.712V134.462L31.6184 131.712C31.6169 134.036 31.6328 136.364 31.6666 138.712L772.7 141.462L777.7 138.712Z" fill="#4A1E01" fill-opacity="0.7"/>
<path d="M772.7 141.462L31.6666 138.712C31.7021 141.183 31.7574 143.677 31.833 146.212L758.609 149.212L772.7 141.462Z" fill="#4A1E01" fill-opacity="0.7"/>
<path d="M758.609 149.212L31.833 146.212C31.9062 148.667 31.9985 151.162 32.1102 153.712L745.881 156.212L758.609 149.212Z" fill="#4A1E01" fill-opacity="0.7"/>
<path d="M515.7 214.212C557.766 213.871 580.988 212.196 621.2 204.212L258.7 207.106C261.17 207.309 263.67 207.511 266.2 207.712C332.19 211.736 369.025 213.576 433.7 214.212H515.7Z" fill="#4A1E01" fill-opacity="0.7"/>
<path d="M621.2 204.212C626.659 202.816 631.802 201.469 636.7 200.144L176.2 198.887C201.374 201.874 227.74 204.563 258.7 207.106L621.2 204.212Z" fill="#4A1E01" fill-opacity="0.7"/>
<path d="M660.2 193.343L120.2 191.607C139.151 194.244 157.341 196.649 176.2 198.887L636.7 200.144C645.141 197.859 652.854 195.638 660.2 193.343Z" fill="#4A1E01" fill-opacity="0.7"/>
<path d="M69.4359 184.356L69.4455 184.357C87.4937 186.966 104.121 189.37 120.2 191.607L660.2 193.343C667.907 190.934 675.211 188.444 682.527 185.712L64.2 183.599L69.4359 184.356Z" fill="#4A1E01" fill-opacity="0.7"/>
<path d="M33.4356 175.712C33.5207 176.863 33.6088 178.029 33.7001 179.212C44.3747 180.737 54.4982 182.197 64.2 183.599L682.527 185.712C688.179 183.601 693.839 181.347 699.7 178.875L33.4356 175.712Z" fill="#4A1E01" fill-opacity="0.7"/>
<path d="M717.7 170.905L32.9119 168.212C33.0711 170.643 33.2456 173.139 33.4356 175.712L699.7 178.875C705.447 176.45 711.386 173.817 717.7 170.905Z" fill="#4A1E01" fill-opacity="0.7"/>
<path d="M727.7 166.212L731.7 164.012L32.4858 161.212C32.6132 163.489 32.7552 165.819 32.9119 168.212L717.7 170.905C720.927 169.416 724.253 167.855 727.7 166.212Z" fill="#4A1E01" fill-opacity="0.7"/>
<path d="M745.881 156.212L32.1102 153.712C32.2173 156.155 32.3424 158.65 32.4858 161.212L731.7 164.012L745.881 156.212Z" fill="#4A1E01" fill-opacity="0.7"/>
<path fill-rule="evenodd" clip-rule="evenodd" d="M809.851 130.551L777.7 130.212V134.462V138.712L808.373 138.619L1109.7 137.712V133.712L809.851 130.551Z" fill="#762F00" fill-opacity="0.57"/>
<path d="M3.70006 64.7116C0.125185 116.523 0.0748649 145.225 3.70006 195.712L194.2 217.712C285.334 227.379 335.739 230.457 424.2 231.212C489.233 233.016 525.368 232.416 588.7 225.712C638.591 219.152 665.558 212.561 711.2 193.712C750.311 174.486 772.701 161.565 808.373 138.619L777.7 138.712L772.7 141.462L758.609 149.212L745.881 156.212L731.7 164.012L727.7 166.212C724.253 167.855 720.927 169.416 717.7 170.905C711.386 173.817 705.447 176.45 699.7 178.875C693.839 181.347 688.179 183.601 682.527 185.712C675.211 188.444 667.907 190.934 660.2 193.343C652.854 195.638 645.141 197.859 636.7 200.144C631.802 201.469 626.659 202.816 621.2 204.212C580.988 212.196 557.766 213.871 515.7 214.212H433.7C369.025 213.576 332.19 211.736 266.2 207.712C263.67 207.511 261.17 207.309 258.7 207.106C227.74 204.563 201.374 201.874 176.2 198.887C157.341 196.649 139.151 194.244 120.2 191.607C104.121 189.37 87.4937 186.966 69.4455 184.357L69.4359 184.356L64.2 183.599C54.4982 182.197 44.3747 180.737 33.7001 179.212C33.6088 178.029 33.5207 176.863 33.4356 175.712C33.2456 173.139 33.0711 170.643 32.9119 168.212C32.7552 165.819 32.6132 163.489 32.4858 161.212C32.3424 158.65 32.2173 156.155 32.1102 153.712C31.9985 151.162 31.9062 148.667 31.833 146.212C31.7574 143.677 31.7021 141.183 31.6666 138.712C31.6328 136.364 31.6169 134.036 31.6184 131.712C31.6202 128.883 31.6478 126.059 31.7003 123.212C31.7429 120.9 31.8019 118.572 31.877 116.212C31.9603 113.592 32.0633 110.932 32.1855 108.212C32.2953 105.766 32.4206 103.271 32.5609 100.712C32.6858 98.4336 32.8226 96.104 32.9709 93.7119C33.1218 91.2803 33.2845 88.7842 33.4589 86.2119C33.537 85.0608 33.6174 83.8943 33.7001 82.7116C45.4814 80.6771 56.5857 78.7863 67.2 77.0263C74.437 75.8263 81.4463 74.6872 88.2872 73.6049C111.42 69.9451 132.627 66.9353 154.2 64.4202C185.965 60.7169 218.525 58.0861 259.2 56.032C261.344 55.9237 263.51 55.817 265.7 55.7119C328.039 50.1424 364.653 49.8141 433.7 51.7116H515.7C552.725 52.7445 575.127 54.5232 608.2 60.3298C612.349 61.0582 616.665 61.85 621.2 62.7116C624.31 63.3511 627.304 63.9923 630.2 64.6394C642.628 67.4166 653.226 70.3003 663.2 73.6049C669.343 75.6401 675.249 77.8349 681.2 80.2628C687.066 82.6559 692.976 85.2755 699.2 88.1918C704.276 90.5701 709.56 93.1458 715.2 95.9571C716.675 96.6923 718.174 97.4435 719.7 98.2116L729.669 103.712L742.7 110.901L757.2 118.901L770.2 126.074L777.7 130.212L809.851 130.551C771.924 104.722 747.905 91.213 705.2 70.2116C660.585 53.644 634.516 46.8557 586.2 39.2116C525.505 32.5315 491.249 32.7686 433.517 33.1682C431.443 33.1826 429.338 33.1972 427.2 33.2116C334.56 34.0132 283.756 37.1354 194.2 45.2116L3.70006 64.7116Z" fill="#762F00" fill-opacity="0.57"/>
<path d="M777.7 130.212L809.851 130.551M742.7 110.901L757.2 118.901L770.2 126.074L777.7 130.212M777.7 130.212V134.462M777.7 138.712L808.373 138.619M777.7 138.712V134.462M777.7 138.712L772.7 141.462M660.2 193.343C652.854 195.638 645.141 197.859 636.7 200.144C631.802 201.469 626.659 202.816 621.2 204.212C580.988 212.196 557.766 213.871 515.7 214.212H433.7C369.025 213.576 332.19 211.736 266.2 207.712C263.67 207.511 261.17 207.309 258.7 207.106M621.2 204.212L258.7 207.106M809.851 130.551C771.924 104.722 747.905 91.213 705.2 70.2116C660.585 53.644 634.516 46.8557 586.2 39.2116C525.505 32.5315 491.249 32.7686 433.517 33.1682C431.443 33.1826 429.338 33.1972 427.2 33.2116C334.56 34.0132 283.756 37.1354 194.2 45.2116L3.70006 64.7116C0.125185 116.523 0.0748649 145.225 3.70006 195.712L194.2 217.712C285.334 227.379 335.739 230.457 424.2 231.212C489.233 233.016 525.368 232.416 588.7 225.712C638.591 219.152 665.558 212.561 711.2 193.712C750.311 174.486 772.701 161.565 808.373 138.619M809.851 130.551L1109.7 133.712V137.712L808.373 138.619M809.851 130.551C811.603 131.744 813.385 132.964 815.2 134.212C812.868 135.722 810.595 137.19 808.373 138.619M69.4455 184.357L69.4359 184.356M69.4455 184.357C69.4423 184.357 69.4391 184.357 69.4359 184.356M69.4455 184.357C87.4937 186.966 104.121 189.37 120.2 191.607M69.4359 184.356C67.7039 184.106 65.9589 183.853 64.2 183.599M69.4359 184.356L64.2 183.599M259.2 56.032C218.525 58.0861 185.965 60.7169 154.2 64.4202C132.627 66.9353 111.42 69.9451 88.2872 73.6049C81.4463 74.6872 74.437 75.8263 67.2 77.0263C56.5857 78.7863 45.4814 80.6771 33.7001 82.7116C33.6174 83.8943 33.537 85.0608 33.4589 86.2119M33.4589 86.2119L699.2 88.1918M33.4589 86.2119C33.2845 88.7842 33.1218 91.2803 32.9709 93.7119M699.2 88.1918C704.276 90.5701 709.56 93.1458 715.2 95.9571M699.2 88.1918C692.976 85.2755 687.066 82.6559 681.2 80.2628M32.9709 93.7119L715.2 95.9571M32.9709 93.7119C32.8226 96.104 32.6858 98.4336 32.5609 100.712M742.7 110.901L729.669 103.712L719.7 98.2116C718.174 97.4435 716.675 96.6923 715.2 95.9571M729.669 103.712L32.5609 100.712M32.4858 161.212C32.3424 158.65 32.2173 156.155 32.1102 153.712C31.9985 151.162 31.9062 148.667 31.833 146.212C31.7574 143.677 31.7021 141.183 31.6666 138.712C31.6328 136.364 31.6169 134.036 31.6184 131.712C31.6202 128.883 31.6478 126.059 31.7003 123.212C31.7429 120.9 31.8019 118.572 31.877 116.212C31.9603 113.592 32.0633 110.932 32.1855 108.212C32.2953 105.766 32.4206 103.271 32.5609 100.712M32.1855 108.212L742.7 110.901M757.2 118.901L31.877 116.212M31.7003 123.212L770.2 126.074M777.7 134.462L31.6184 131.712M31.6666 138.712L772.7 141.462M745.881 156.212L758.609 149.212L772.7 141.462M758.609 149.212L31.833 146.212M32.1102 153.712L745.881 156.212M660.2 193.343C667.907 190.934 675.211 188.444 682.527 185.712C688.179 183.601 693.839 181.347 699.7 178.875C705.447 176.45 711.386 173.817 717.7 170.905C720.927 169.416 724.253 167.855 727.7 166.212L731.7 164.012L745.881 156.212M731.7 164.012L32.4858 161.212M64.2 183.599C54.4982 182.197 44.3747 180.737 33.7001 179.212C33.6088 178.029 33.5207 176.863 33.4356 175.712C33.2456 173.139 33.0711 170.643 32.9119 168.212C32.7552 165.819 32.6132 163.489 32.4858 161.212M32.9119 168.212L717.7 170.905M699.7 178.875L33.4356 175.712M64.2 183.599L682.527 185.712M660.2 193.343L120.2 191.607M120.2 191.607C139.151 194.244 157.341 196.649 176.2 198.887M176.2 198.887L636.7 200.144M176.2 198.887C201.374 201.874 227.74 204.563 258.7 207.106M67.2 77.0263L681.2 80.2628M681.2 80.2628C675.249 77.8349 669.343 75.6401 663.2 73.6049M663.2 73.6049H88.2872M663.2 73.6049C653.226 70.3003 642.628 67.4166 630.2 64.6394M630.2 64.6394C627.304 63.9923 624.31 63.3511 621.2 62.7116C616.665 61.85 612.349 61.0582 608.2 60.3298M630.2 64.6394L154.2 64.4202M608.2 60.3298C575.127 54.5232 552.725 52.7445 515.7 51.7116H433.7C364.653 49.8141 328.039 50.1424 265.7 55.7119C263.51 55.817 261.344 55.9237 259.2 56.032M608.2 60.3298L259.2 56.032" stroke="black" stroke-width="2"/>
<path d="M195.132 163.471L82.9999 206.345L138.315 210.694L194.339 173.553L287.733 187.175L344.05 113.827L289.016 170.851L195.132 163.471Z" fill="#D9D9D9"/>
<path d="M573.5 65.5L691.168 63.4199L637.453 49.5109L573.5 58L526 52L500.5 83.5L464 113L418 109.094L464 121.5L504.5 92.5L531 63.4199L573.5 65.5Z" fill="#D9D9D9"/>
</svg>
