<svg width="346" height="54" viewBox="0 0 346 54" fill="none" xmlns="http://www.w3.org/2000/svg">
<path fill-rule="evenodd" clip-rule="evenodd" d="M217.366 48.3999H148.185L111.49 45.8497L74.7938 43.2995L44.2856 38.8644L16.5566 34.8333L10.7267 33.9857V30.4376V27.1112V23.674V20.2368L12.2893 20.015L37.2911 16.4669L64.2663 12.6387L74.7938 11.1447C103.093 8.45922 118.862 6.85955 148.185 5.15727C175.196 5.21839 190.346 5.66949 217.366 6.70957L237.518 8.59451L257.671 10.4794V12.697V16.4669V20.015V21.3456V23.674V27.1112V30.8811V34.8727V38.8644V42.856L237.518 45.628L217.366 48.3999Z" fill="#863500"/>
<path fill-rule="evenodd" clip-rule="evenodd" d="M217.366 48.3999H148.185L111.49 45.8497L74.7938 43.2995L44.2856 38.8644L16.5566 34.8333L10.7267 33.9857V30.4376V27.1112V23.674V20.2368L12.2893 20.015L37.2911 16.4669L64.2663 12.6387L74.7938 11.1447C103.093 8.45922 118.862 6.85955 148.185 5.15727C175.196 5.21839 190.346 5.66949 217.366 6.70957L237.518 8.59451L257.671 10.4794V12.697V16.4669V20.015V21.3456V23.674V27.1112V30.8811V34.8727V38.8644V42.856L237.518 45.628L217.366 48.3999Z" fill="#4A1E01"/>
<path fill-rule="evenodd" clip-rule="evenodd" d="M7.11726 37.5338V44.6301L52.235 48.3999L53.4381 47.5129L113.294 51.7263L173.451 53.5004L214.057 52.1698L247.745 49.287L249.55 46.8476L316.625 27.7765H324.445H345.5V24.6719H324.445H316.625L249.55 6.70957L247.745 3.82673L176.459 0.500366L113.294 2.49618L53.4381 6.93133L8.3204 10.2577V16.6887L3.50785 19.128L0.5 20.902V33.9857L3.50785 35.7598L7.11726 37.5338ZM217.366 48.3999H148.185L111.49 45.8497L74.7938 43.2995L44.2856 38.8644L16.5566 34.8333L10.7267 33.9857V30.4376V27.1112V23.674V20.2368L12.2893 20.015L37.2911 16.4669L64.2663 12.6387L74.7938 11.1447C103.093 8.45922 118.862 6.85955 148.185 5.15727C175.196 5.21839 190.346 5.66949 217.366 6.70957L237.518 8.59451L257.671 10.4794V12.697V16.4669V20.015V21.3456V23.674V27.1112V30.8811V34.8727V38.8644V42.856L237.518 45.628L217.366 48.3999Z" fill="#863500"/>
<path d="M316.625 27.7765L249.55 46.8476L247.745 49.287L214.057 52.1698L173.451 53.5004L113.294 51.7263L53.4381 47.5129L52.235 48.3999L7.11726 44.6301V37.5338L3.50785 35.7598L0.5 33.9857V20.902L3.50785 19.128L8.3204 16.6887V10.2577L53.4381 6.93133L113.294 2.49618L176.459 0.500366L247.745 3.82673L249.55 6.70957L316.625 24.6719M316.625 27.7765H324.445H345.5V24.6719H324.445M316.625 27.7765H262.784M324.445 24.6719H316.625M324.445 24.6719H262.784H316.625M10.7267 27.1112H257.671M10.7267 27.1112V30.4376M10.7267 27.1112V23.674M257.671 27.1112V30.8811M257.671 27.1112V23.674M257.671 30.8811L10.7267 30.4376M257.671 30.8811V21.3456M257.671 30.8811V34.8728M111.49 45.8497L74.7938 43.2995L44.2856 38.8644L16.5566 34.8333L10.7267 33.9857V30.4376M10.7267 30.4376V23.674M10.7267 23.674V20.2368L12.2893 20.015M10.7267 23.674H257.671M257.671 23.674V21.3456M257.671 21.3456V20.015M257.671 20.015H12.2893M257.671 20.015V16.4669M12.2893 20.015L37.2911 16.4669M257.671 34.8728L16.5566 34.8333M257.671 34.8728V38.8644M257.671 16.4669H37.2911M257.671 16.4669V12.697M237.518 8.59451L217.366 6.70957C190.346 5.66949 175.196 5.21839 148.185 5.15727C118.862 6.85955 103.093 8.45922 74.7938 11.1447L64.2663 12.6387L37.2911 16.4669M257.671 12.697V10.4794L237.518 8.59451M257.671 12.697L64.2663 12.6387M111.49 45.8497L148.185 48.3999H217.366L237.518 45.628L257.671 42.856V38.8644M257.671 38.8644H44.2856M237.518 45.628L111.49 45.8497M237.518 8.59451H101.885" stroke="black"/>
</svg>
