<svg width="164" height="35" viewBox="0 0 164 35" fill="none" xmlns="http://www.w3.org/2000/svg">
<path d="M130.128 16.7164C129.512 10.923 127.864 8.41547 123.54 4.72318C94.3979 1.16971 78.4972 2.03162 49.9454 2.32451C47.8128 2.54512 46.8935 2.93656 45.6163 3.98512C45.4327 14.6543 45.3309 20.636 46.181 31.1085C47.1214 31.809 48.0948 31.9611 50.5101 31.8466C79.3089 31.9205 95.4839 32.5246 124.105 29.0789C127.774 24.8929 129.211 22.2426 130.128 16.7164Z" fill="#4A1E01"/>
<path d="M112.623 0.479233C87.0742 0.0224949 72.6984 0.178791 46.9339 1.58631C37.0474 2.36656 29.8037 3.27773 22.2768 4.89992C20.501 7.3387 19.304 8.57931 16.6302 10.4431C14.184 8.34895 12.3865 7.81861 7.97197 8.65862C7.05348 8.9344 6.11344 9.22143 5.14865 9.52036C1.9471 11.9895 0.912338 13.828 0.254883 17.8234C1.13383 21.34 2.10976 23.1831 5.14865 26.1265C6.11356 26.4022 7.05364 26.666 7.97197 26.9189C12.5131 27.0367 14.6103 26.5451 17.3831 24.4661C20.0647 26.6828 21.4515 28.0359 23.7826 30.6031C30.8591 31.8907 37.7666 32.6144 46.9339 33.3225C72.2766 34.5125 86.6355 34.605 112.623 33.3225C132.37 30.393 142.364 26.5931 158.432 16.901H154.501C154.184 17.4472 153.64 17.8539 152.526 18.5616C143.344 23.6589 137.183 25.9921 124.105 29.0789C95.4839 32.5246 79.3089 31.9205 50.5101 31.8466C48.0948 31.9611 47.1214 31.809 46.181 31.1085C45.3309 20.636 45.4327 14.6543 45.6163 3.98512C46.8935 2.93656 47.8128 2.54512 49.9454 2.32451C78.4972 2.03162 94.3979 1.16971 123.54 4.72318C134.487 6.25839 140.952 9.12081 152.526 14.5024C153.399 15.1711 153.883 15.6137 154.264 16.163H157.689C141.825 7.82338 131.914 4.0729 112.623 0.479233Z" fill="#863500"/>
<path d="M7.97197 8.65862C12.3865 7.81861 14.184 8.34895 16.6302 10.4431C19.304 8.57931 20.501 7.3387 22.2768 4.89992C17.8118 5.86224 13.2471 7.07477 7.97197 8.65862Z" fill="#4A1E01"/>
<path d="M17.3831 24.4661C14.6103 26.5451 12.5131 27.0367 7.97197 26.9189C13.867 28.5417 18.8656 29.7085 23.7826 30.6031C21.4515 28.0359 20.0647 26.6828 17.3831 24.4661Z" fill="#4A1E01"/>
<path d="M123.54 4.72318C127.864 8.41547 129.512 10.923 130.128 16.7164C129.211 22.2426 127.774 24.8929 124.105 29.0789C137.183 25.9921 143.344 23.6589 152.526 18.5616C153.64 17.8539 154.184 17.4472 154.501 16.901C154.535 16.8413 154.567 16.78 154.597 16.7164C154.49 16.5149 154.382 16.3338 154.264 16.163C153.883 15.6137 153.399 15.1711 152.526 14.5024C140.952 9.12081 134.487 6.25839 123.54 4.72318Z" fill="#863500"/>
<path d="M163.255 16.901V16.163H157.689C158.035 16.3452 158.385 16.5297 158.738 16.7164L158.63 16.7812C158.564 16.8212 158.498 16.8612 158.432 16.901H163.255Z" fill="#863500"/>
<path d="M154.501 16.901H158.432L158.63 16.7812L158.738 16.7164C158.385 16.5297 158.035 16.3452 157.689 16.163H154.264C154.382 16.3338 154.49 16.5149 154.597 16.7164C154.567 16.78 154.535 16.8413 154.501 16.901Z" fill="#863500"/>
<path d="M158.432 16.901C158.498 16.8612 158.564 16.8212 158.63 16.7812C158.666 16.7596 158.702 16.738 158.738 16.7164C158.385 16.5297 158.035 16.3452 157.689 16.163M158.738 16.7164L158.63 16.7812M123.54 4.72318C127.864 8.41547 129.512 10.923 130.128 16.7164C129.211 22.2426 127.774 24.8929 124.105 29.0789M154.501 16.901C154.184 17.4472 153.64 17.8539 152.526 18.5616C143.344 23.6589 137.183 25.9921 124.105 29.0789C95.4839 32.5246 79.3089 31.9205 50.5101 31.8466C48.0948 31.9611 47.1214 31.809 46.181 31.1085C45.3309 20.636 45.4327 14.6543 45.6163 3.98512C46.8935 2.93656 47.8128 2.54512 49.9454 2.32451C78.4972 2.03162 94.3979 1.16971 123.54 4.72318C134.487 6.25839 140.952 9.12081 152.526 14.5024C153.399 15.1711 153.883 15.6137 154.264 16.163M133.516 15.9785H143.115V16.163H154.264M133.516 17.4546H143.115V16.901H154.501M7.97197 26.9189C7.05364 26.666 6.11356 26.4022 5.14865 26.1265C2.10976 23.1831 1.13383 21.34 0.254883 17.8234C0.912338 13.828 1.9471 11.9895 5.14865 9.52036C6.11344 9.22143 7.05348 8.9344 7.97197 8.65862M7.97197 26.9189C12.5131 27.0367 14.6103 26.5451 17.3831 24.4661C20.0647 26.6828 21.4515 28.0359 23.7826 30.6031M158.432 16.901C142.364 26.5931 132.37 30.393 112.623 33.3225C86.6355 34.605 72.2766 34.5125 46.9339 33.3225C37.7666 32.6144 30.8591 31.8907 23.7826 30.6031C18.8656 29.7085 13.867 28.5417 7.97197 26.9189M7.97197 8.65862C12.3865 7.81861 14.184 8.34895 16.6302 10.4431C19.304 8.57931 20.501 7.3387 22.2768 4.89992M7.97197 8.65862C13.2471 7.07477 17.8118 5.86224 22.2768 4.89992M22.2768 4.89992C29.8037 3.27773 37.0474 2.36656 46.9339 1.58631C72.6984 0.178791 87.0742 0.0224949 112.623 0.479233C131.914 4.0729 141.825 7.82338 157.689 16.163M158.432 16.901H154.501M158.432 16.901H163.255V16.163H157.689M158.432 16.901L158.63 16.7812M154.501 16.901C154.535 16.8413 154.567 16.78 154.597 16.7164C154.49 16.5149 154.382 16.3338 154.264 16.163M154.264 16.163H157.689" stroke="black" stroke-width="0.5"/>
</svg>
