<svg width="484" height="60" viewBox="0 0 484 60" fill="none" xmlns="http://www.w3.org/2000/svg">
<path fill-rule="evenodd" clip-rule="evenodd" d="M121.49 1.68839C202.6 -1.23108 246.545 1.10028 326.304 1.68839C351.114 13.2247 365.956 19.7731 390.713 28.3613C392.586 29.0108 394.515 29.6719 396.509 30.3478C394.75 30.9527 393.04 31.5438 391.376 32.1229C364.325 41.5373 349.252 47.7954 326.304 59.25H121.49L104.374 56.8212L3.70819 53.9067C-1.00476 35.8023 -0.799561 25.535 3.70819 7.03166C43.2065 4.36478 65.2149 3.85277 104.374 3.6314L121.49 1.68839ZM251.167 55.6069C268.753 55.6583 292.942 55.364 297.874 53.1781C300.592 51.9733 301.925 51.0174 303.143 50.0208C303.357 49.8462 303.567 49.6704 303.78 49.4917L303.784 49.4882L303.785 49.487L303.786 49.4863C304.562 48.8362 305.383 48.1488 306.577 47.3491C307.302 45.4493 307.891 43.6799 308.361 42.0059C309.494 37.9702 309.937 34.4895 309.93 31.0765C309.924 27.5414 309.435 24.0789 308.733 20.1471C308.498 18.8265 308.238 17.4529 307.964 16.0059L307.964 16.0051C307.889 15.6102 307.814 15.2099 307.737 14.8037C306.104 13.3817 304.64 12.184 303.143 11.1059C299.962 8.81468 296.632 7.06311 291.201 4.84578C276.011 3.9843 267.263 3.95298 251.167 4.84578C199.417 4.36022 169.178 4.51396 111.627 6.06016C72.9671 7.00198 51.3104 7.98359 12.7014 10.189C12.6872 10.4972 12.6732 10.8028 12.6595 11.1059C12.507 14.4697 12.3828 17.526 12.2892 20.39C12.1646 24.2019 12.0942 27.6733 12.0836 31.0765C12.0724 34.688 12.1284 38.2227 12.2585 42.0059C12.3453 44.5342 12.4652 47.1735 12.6201 50.0208C12.6462 50.5005 12.6733 50.986 12.7014 51.478C51.3245 53.526 72.9871 53.9461 111.627 53.9067C165.673 57.2241 196.28 57.2798 251.167 55.6069Z" fill="#762F00"/>
<path fill-rule="evenodd" clip-rule="evenodd" d="M251.167 55.6069C268.753 55.6583 292.942 55.364 297.874 53.1781C300.592 51.9733 301.925 51.0174 303.143 50.0208C303.357 49.8462 303.567 49.6704 303.78 49.4917L303.784 49.4882L303.785 49.487L303.786 49.4863C304.562 48.8362 305.383 48.1488 306.577 47.3491C307.302 45.4493 307.891 43.6799 308.361 42.0059C309.494 37.9702 309.937 34.4895 309.93 31.0765C309.924 27.5414 309.435 24.0789 308.733 20.1471C308.498 18.8265 308.238 17.4529 307.964 16.0059L307.964 16.0051C307.889 15.6102 307.814 15.2099 307.737 14.8037C306.104 13.3817 304.64 12.184 303.143 11.1059C299.962 8.81468 296.632 7.06311 291.201 4.84578C276.011 3.9843 267.263 3.95298 251.167 4.84578C199.417 4.36022 169.178 4.51396 111.627 6.06016C72.9671 7.00198 51.3104 7.98359 12.7014 10.189C12.6872 10.4972 12.6732 10.8028 12.6595 11.1059C12.507 14.4697 12.3828 17.526 12.2892 20.39C12.1646 24.2019 12.0942 27.6733 12.0836 31.0765C12.0724 34.688 12.1284 38.2227 12.2585 42.0059C12.3453 44.5342 12.4652 47.1735 12.6201 50.0208C12.6462 50.5005 12.6733 50.986 12.7014 51.478C51.3245 53.526 72.9871 53.9461 111.627 53.9067C165.673 57.2241 196.28 57.2798 251.167 55.6069Z" fill="#4A1E01"/>
<path d="M483.25 30.3478V33.0194L391.376 32.1229C393.04 31.5438 394.75 30.9527 396.509 30.3478C394.515 29.6719 392.586 29.0108 390.713 28.3613L483.25 30.3478Z" fill="#762F00"/>
<path d="M391.376 32.1229C364.325 41.5373 349.252 47.7954 326.304 59.25H121.49L104.374 56.8212L3.70818 53.9067C-1.00475 35.8023 -0.799573 25.535 3.70818 7.03166C43.2065 4.36478 65.2149 3.85277 104.374 3.6314C111.059 2.87261 114.806 2.44718 121.49 1.68839C202.6 -1.23108 246.545 1.10028 326.304 1.68839C351.114 13.2247 365.956 19.7731 390.713 28.3613M121.49 1.68839L104.374 3.6314M358.795 27.6761L390.713 28.3613M358.795 31.805L391.376 32.1229M308.361 42.0059C307.891 43.6799 307.302 45.4493 306.577 47.3491C305.383 48.1488 304.562 48.8362 303.786 49.4863L303.785 49.487L303.784 49.4882C303.783 49.4894 303.781 49.4905 303.78 49.4917C303.567 49.6704 303.357 49.8462 303.143 50.0208C301.925 51.0174 300.592 51.9733 297.874 53.1781C292.942 55.364 268.753 55.6583 251.167 55.6069C196.28 57.2798 165.673 57.2241 111.627 53.9067C72.9871 53.9461 51.3245 53.526 12.7014 51.478C12.6733 50.986 12.6462 50.5005 12.6201 50.0208C12.4652 47.1735 12.3453 44.5342 12.2585 42.0059M303.143 50.0208H12.6201M309.93 31.0765H12.0836M308.361 42.0059C309.494 37.9702 309.937 34.4895 309.93 31.0765C309.924 27.5414 309.435 24.0789 308.733 20.1471M12.6595 11.1059C12.507 14.4697 12.3828 17.526 12.2892 20.39C12.1646 24.2019 12.0942 27.6733 12.0836 31.0765M12.0836 31.0765C12.0724 34.688 12.1284 38.2227 12.2585 42.0059M12.2892 20.39L308.733 20.1471M12.6595 11.1059C12.6733 10.8028 12.6872 10.4972 12.7014 10.189C51.3104 7.98359 72.9671 7.00198 111.627 6.06016C169.178 4.51396 199.417 4.36022 251.167 4.84578C267.263 3.95298 276.011 3.9843 291.201 4.84578C296.632 7.06311 299.962 8.81468 303.143 11.1059C304.64 12.184 306.104 13.3817 307.737 14.8037C307.814 15.2099 307.889 15.6102 307.964 16.0051L307.964 16.0059C308.238 17.4529 308.498 18.8265 308.733 20.1471M12.2585 42.0059H308.361M303.143 11.1059H12.6595M390.713 28.3613L483.25 30.3478V33.0194L391.376 32.1229M390.713 28.3613C392.586 29.0108 394.515 29.6719 396.509 30.3478C394.75 30.9527 393.04 31.5438 391.376 32.1229M303.784 49.4882L303.78 49.4917" stroke="black" stroke-width="0.5"/>
</svg>
