<svg width="303" height="55" viewBox="0 0 303 55" fill="none" xmlns="http://www.w3.org/2000/svg">
<path d="M118.114 5.32531C99.3058 4.81064 89.3324 4.89967 72.3519 6.41035C71.7554 6.43886 71.1653 6.46779 70.5814 6.49716L165.646 7.66289C156.637 6.08793 150.535 5.60548 140.45 5.32531H118.114Z" fill="#4A1E01"/>
<path d="M171.638 8.83182C170.85 8.65632 170.034 8.48238 169.187 8.30894C167.952 8.07522 166.776 7.86046 165.646 7.66289L70.5814 6.49716C59.5018 7.05432 50.6328 7.76789 41.9803 8.77237L171.638 8.83182Z" fill="#4A1E01"/>
<path d="M24.0262 11.2636H180.627C177.911 10.3673 175.024 9.58511 171.638 8.83182L41.9803 8.77237C36.104 9.45456 30.3275 10.2709 24.0262 11.2636Z" fill="#4A1E01"/>
<path d="M18.2823 12.1916L185.53 13.0695C183.909 12.411 182.301 11.8156 180.627 11.2636H24.0262C22.1629 11.5572 20.2536 11.8662 18.2823 12.1916Z" fill="#4A1E01"/>
<path d="M9.15721 13.7337C9.13468 14.0545 9.11279 14.3709 9.09153 14.6831L190.433 15.2201C188.738 14.4291 187.128 13.7186 185.53 13.0695L18.2823 12.1916C15.391 12.669 12.3663 13.1819 9.15721 13.7337Z" fill="#4A1E01"/>
<path d="M190.433 15.2201L9.09153 14.6831C9.04402 15.3808 8.99968 16.0579 8.9586 16.7174L194.792 17.3264C193.256 16.5639 191.816 15.8652 190.433 15.2201Z" fill="#4A1E01"/>
<path d="M196.018 17.9379C195.602 17.7296 195.193 17.5258 194.792 17.3264L8.9586 16.7174C8.91819 17.3662 8.88094 17.9981 8.84692 18.6161L198.733 19.4298L196.018 17.9379Z" fill="#4A1E01"/>
<path d="M198.733 19.4298L8.84692 18.6161C8.8087 19.3103 8.77458 19.987 8.74466 20.6504L202.282 21.3798L198.733 19.4298Z" fill="#4A1E01"/>
<path d="M202.282 21.3798L8.74466 20.6504C8.71138 21.3882 8.68331 22.1095 8.66061 22.8203L206.232 23.5497L202.282 21.3798Z" fill="#4A1E01"/>
<path d="M206.232 23.5497L8.66061 22.8203C8.64017 23.4603 8.62408 24.0918 8.61248 24.7189L209.773 25.4952L206.232 23.5497Z" fill="#4A1E01"/>
<path d="M211.816 26.6175L209.773 25.4952L8.61248 24.7189C8.59818 25.4913 8.59068 26.2571 8.59019 27.0245L211.816 27.7703V26.6175Z" fill="#4A1E01"/>
<path d="M211.816 28.9231V27.7703L8.59019 27.0245C8.58978 27.6549 8.59412 28.2863 8.60331 28.9231L210.454 29.669L211.816 28.9231Z" fill="#4A1E01"/>
<path d="M210.454 29.669L8.60331 28.9231C8.61298 29.5935 8.62804 30.2698 8.64863 30.9574L206.616 31.7711L210.454 29.669Z" fill="#4A1E01"/>
<path d="M206.616 31.7711L8.64863 30.9574C8.66857 31.6234 8.6937 32.3 8.72415 32.9917L203.149 33.6698L206.616 31.7711Z" fill="#4A1E01"/>
<path d="M140.45 49.4016C151.908 49.3092 158.234 48.855 169.187 46.6892L70.4452 47.4742C71.118 47.5292 71.7989 47.584 72.4881 47.6385C90.4631 48.73 100.497 49.2292 118.114 49.4016H140.45Z" fill="#4A1E01"/>
<path d="M169.187 46.6892C170.674 46.3107 172.075 45.9454 173.409 45.5858L47.9729 45.2449C54.83 46.0552 62.012 46.7846 70.4452 47.4742L169.187 46.6892Z" fill="#4A1E01"/>
<path d="M179.81 43.7411L32.719 43.2703C37.881 43.9855 42.8358 44.6379 47.9729 45.2449L173.409 45.5858C175.708 44.9661 177.809 44.3637 179.81 43.7411Z" fill="#4A1E01"/>
<path d="M18.8913 41.3036L18.8939 41.304C23.8101 42.0116 28.3391 42.6636 32.719 43.2703L179.81 43.7411C181.91 43.0878 183.899 42.4123 185.892 41.6714L17.4651 41.0983L18.8913 41.3036Z" fill="#4A1E01"/>
<path d="M9.08518 38.959C9.10834 39.2711 9.13234 39.5875 9.15721 39.9082C12.0649 40.3219 14.8224 40.718 17.4651 41.0983L185.892 41.6714C187.432 41.0989 188.973 40.4874 190.57 39.8168L9.08518 38.959Z" fill="#4A1E01"/>
<path d="M195.473 37.6552L8.94252 36.9247C8.98589 37.584 9.03341 38.2611 9.08518 38.959L190.57 39.8168C192.135 39.1593 193.753 38.445 195.473 37.6552Z" fill="#4A1E01"/>
<path d="M198.197 36.3821L199.286 35.7854L8.82644 35.026C8.86116 35.6436 8.89982 36.2755 8.94252 36.9247L195.473 37.6552C196.352 37.2514 197.258 36.8279 198.197 36.3821Z" fill="#4A1E01"/>
<path d="M203.149 33.6698L8.72415 32.9917C8.75333 33.6545 8.78738 34.3312 8.82644 35.026L199.286 35.7854L203.149 33.6698Z" fill="#4A1E01"/>
<path fill-rule="evenodd" clip-rule="evenodd" d="M220.574 26.7095L211.816 26.6175V27.7703V28.9231L220.171 28.898L302.25 28.6519V27.567L220.574 26.7095Z" fill="#863500"/>
<path d="M0.985471 8.85141C0.0117082 22.9046 -0.00199857 30.6897 0.985471 44.3837L52.876 50.3509C77.7 52.973 91.4299 53.808 115.526 54.0126C133.24 54.5021 143.083 54.3392 160.334 52.5208C173.924 50.7417 181.27 48.9539 193.702 43.8412C204.356 38.6264 210.455 35.1217 220.171 28.898L211.816 28.9231L210.454 29.669L206.616 31.7711L203.149 33.6698L199.286 35.7854L198.197 36.3821C197.258 36.8279 196.352 37.2514 195.473 37.6552C193.753 38.445 192.135 39.1593 190.57 39.8168C188.973 40.4874 187.432 41.0989 185.892 41.6714C183.899 42.4123 181.91 43.0878 179.81 43.7411C177.809 44.3637 175.708 44.9661 173.409 45.5858C172.075 45.9454 170.674 46.3107 169.187 46.6892C158.234 48.855 151.908 49.3092 140.45 49.4016H118.114C100.497 49.2292 90.4631 48.73 72.4881 47.6385C71.7989 47.584 71.118 47.5292 70.4452 47.4742C62.012 46.7846 54.83 46.0552 47.9729 45.2449C42.8358 44.6379 37.881 43.9855 32.719 43.2703C28.3391 42.6636 23.8101 42.0116 18.8939 41.304L18.8913 41.3036L17.4651 41.0983C14.8224 40.718 12.0649 40.3219 9.15721 39.9082C9.13234 39.5875 9.10834 39.2711 9.08518 38.959C9.03341 38.2611 8.98589 37.584 8.94252 36.9247C8.89982 36.2755 8.86116 35.6436 8.82644 35.026C8.78738 34.3312 8.75333 33.6545 8.72415 32.9917C8.6937 32.3 8.66857 31.6234 8.64863 30.9574C8.62804 30.2698 8.61298 29.5935 8.60331 28.9231C8.59412 28.2863 8.58978 27.6549 8.59019 27.0245C8.59068 26.2571 8.59818 25.4913 8.61248 24.7189C8.62408 24.0918 8.64017 23.4603 8.66061 22.8203C8.68331 22.1095 8.71138 21.3882 8.74466 20.6504C8.77458 19.987 8.8087 19.3103 8.84692 18.6161C8.88094 17.9981 8.91819 17.3662 8.9586 16.7174C8.99968 16.0579 9.04402 15.3808 9.09153 14.6831C9.11279 14.3709 9.13468 14.0545 9.15721 13.7337C12.3663 13.1819 15.391 12.669 18.2823 12.1916C20.2536 11.8662 22.1629 11.5572 24.0262 11.2636C30.3275 10.2709 36.104 9.45456 41.9803 8.77237C50.6328 7.76789 59.5018 7.05432 70.5814 6.49716C71.1653 6.46779 71.7554 6.43886 72.3519 6.41035C89.3324 4.89967 99.3058 4.81064 118.114 5.32531H140.45C150.535 5.60548 156.637 6.08793 165.646 7.66289C166.776 7.86046 167.952 8.07522 169.187 8.30894C170.034 8.48238 170.85 8.65632 171.638 8.83182C175.024 9.58511 177.911 10.3673 180.627 11.2636C182.301 11.8156 183.909 12.411 185.53 13.0695C187.128 13.7186 188.738 14.4291 190.433 15.2201C191.816 15.8652 193.256 16.5639 194.792 17.3264C195.193 17.5258 195.602 17.7296 196.018 17.9379L198.733 19.4298L202.282 21.3798L206.232 23.5497L209.773 25.4952L211.816 26.6175L220.574 26.7095C210.243 19.7038 203.7 16.0396 192.068 10.3432C179.915 5.84944 172.814 4.00819 159.653 1.93483C143.121 0.122926 133.79 0.18724 118.064 0.295628C117.499 0.299523 116.925 0.303475 116.343 0.307399C91.1089 0.524821 77.2702 1.37169 52.876 3.56226L0.985471 8.85141Z" fill="#762F00"/>
<path d="M211.816 26.6175L220.574 26.7095M202.282 21.3798L206.232 23.5497L209.773 25.4952L211.816 26.6175M211.816 26.6175V27.7703M211.816 28.9231L220.171 28.898M211.816 28.9231V27.7703M211.816 28.9231L210.454 29.669M179.81 43.7411C177.809 44.3637 175.708 44.9661 173.409 45.5858C172.075 45.9454 170.674 46.3107 169.187 46.6892C158.234 48.855 151.908 49.3092 140.45 49.4016H118.114C100.497 49.2292 90.4631 48.73 72.4881 47.6385C71.7989 47.584 71.118 47.5292 70.4452 47.4742M169.187 46.6892L70.4452 47.4742M220.574 26.7095C210.243 19.7038 203.7 16.0396 192.068 10.3432C179.915 5.84944 172.814 4.00819 159.653 1.93483C143.121 0.122926 133.79 0.18724 118.064 0.295628C117.499 0.299523 116.925 0.303475 116.343 0.307399C91.1089 0.524821 77.2702 1.37169 52.876 3.56226L0.985471 8.85141C0.0117082 22.9046 -0.00199859 30.6897 0.985471 44.3837L52.876 50.3509C77.7 52.973 91.4299 53.808 115.526 54.0126C133.24 54.5021 143.083 54.3392 160.334 52.5208C173.924 50.7417 181.27 48.9539 193.702 43.8412C204.356 38.6264 210.455 35.1217 220.171 28.898M220.574 26.7095L302.25 27.567V28.6519L220.171 28.898M220.574 26.7095C221.051 27.0332 221.536 27.364 222.031 27.7025C221.396 28.1123 220.776 28.5104 220.171 28.898M18.8939 41.304L18.8913 41.3036M18.8939 41.304C18.8931 41.3039 18.8922 41.3037 18.8913 41.3036M18.8939 41.304C23.8101 42.0116 28.3391 42.6636 32.719 43.2703M18.8913 41.3036C18.4196 41.2357 17.9442 41.1673 17.4651 41.0983M18.8913 41.3036L17.4651 41.0983M70.5814 6.49716C59.5018 7.05432 50.6328 7.76789 41.9803 8.77237C36.104 9.45456 30.3275 10.2709 24.0262 11.2636C22.1629 11.5572 20.2536 11.8662 18.2823 12.1916C15.391 12.669 12.3663 13.1819 9.15721 13.7337C9.13468 14.0545 9.11279 14.3709 9.09153 14.6831M9.09153 14.6831L190.433 15.2201M9.09153 14.6831C9.04402 15.3808 8.99968 16.0579 8.9586 16.7174M190.433 15.2201C191.816 15.8652 193.256 16.5639 194.792 17.3264M190.433 15.2201C188.738 14.4291 187.128 13.7186 185.53 13.0695M8.9586 16.7174L194.792 17.3264M8.9586 16.7174C8.91819 17.3662 8.88094 17.9981 8.84692 18.6161M202.282 21.3798L198.733 19.4298L196.017 17.9379C195.602 17.7296 195.193 17.5258 194.792 17.3264M198.733 19.4298L8.84692 18.6161M8.82644 35.026C8.78739 34.3312 8.75333 33.6545 8.72415 32.9917C8.6937 32.3 8.66857 31.6234 8.64863 30.9574C8.62804 30.2698 8.61298 29.5935 8.60331 28.9231C8.59412 28.2863 8.58978 27.6549 8.59019 27.0245C8.59068 26.2571 8.59818 25.4913 8.61248 24.7189C8.62408 24.0918 8.64017 23.4603 8.66061 22.8203C8.68331 22.1095 8.71138 21.3882 8.74466 20.6504C8.77457 19.987 8.8087 19.3103 8.84692 18.6161M8.74466 20.6504L202.282 21.3798M206.232 23.5497L8.66061 22.8203M8.61248 24.7189L209.773 25.4952M211.816 27.7703L8.59019 27.0245M8.60331 28.9231L210.454 29.669M203.149 33.6698L206.616 31.7711L210.454 29.669M206.616 31.7711L8.64863 30.9574M8.72415 32.9917L203.149 33.6698M179.81 43.7411C181.91 43.0878 183.899 42.4123 185.892 41.6714C187.431 41.0989 188.973 40.4874 190.57 39.8168C192.135 39.1593 193.753 38.445 195.473 37.6552C196.352 37.2514 197.258 36.8279 198.197 36.3821L199.286 35.7854L203.149 33.6698M199.286 35.7854L8.82644 35.026M17.4651 41.0983C14.8224 40.718 12.0649 40.3219 9.15721 39.9082C9.13234 39.5875 9.10834 39.2711 9.08518 38.959C9.03341 38.2611 8.98589 37.584 8.94252 36.9247C8.89982 36.2755 8.86116 35.6436 8.82644 35.026M8.94252 36.9247L195.473 37.6552M190.57 39.8168L9.08518 38.959M17.4651 41.0983L185.892 41.6714M179.81 43.7411L32.719 43.2703M32.719 43.2703C37.881 43.9855 42.8358 44.6379 47.9729 45.2449M47.9729 45.2449L173.409 45.5858M47.9729 45.2449C54.83 46.0552 62.012 46.7846 70.4452 47.4742M18.2823 12.1916L185.53 13.0695M185.53 13.0695C183.909 12.411 182.301 11.8156 180.627 11.2636M180.627 11.2636H24.0262M180.627 11.2636C177.911 10.3673 175.024 9.58511 171.638 8.83182M171.638 8.83182C170.85 8.65632 170.034 8.48238 169.187 8.30894C167.952 8.07522 166.776 7.86046 165.646 7.66289M171.638 8.83182L41.9803 8.77237M165.646 7.66289C156.637 6.08793 150.535 5.60548 140.45 5.32531H118.114C99.3058 4.81064 89.3324 4.89967 72.3519 6.41035C71.7554 6.43886 71.1653 6.46779 70.5814 6.49716M165.646 7.66289L70.5814 6.49716" stroke="black" stroke-width="0.5"/>
</svg>
